<svg xmlns="http://www.w3.org/2000/svg" xmlns:xlink="http://www.w3.org/1999/xlink" width="100" zoomAndPan="magnify" viewBox="0 0 75 74.999997" height="100" preserveAspectRatio="xMidYMid meet" version="1.0"><defs><clipPath id="f74e3f6b4f"><path d="M 7 2.632812 L 67.738281 2.632812 L 67.738281 72.382812 L 7 72.382812 Z M 7 2.632812 " clip-rule="nonzero"/></clipPath></defs><rect x="-7.5" width="90" fill="#ffffff" y="-7.5" height="89.999996" fill-opacity="1"/><rect x="-7.5" width="90" fill="#ffffff" y="-7.5" height="89.999996" fill-opacity="1"/><path fill="#1a1a1a" d="M 22.558594 63.253906 C 21.347656 63.253906 20.140625 62.945312 19.03125 62.328125 L 17.519531 61.480469 C 16.472656 60.894531 16.101562 59.574219 16.6875 58.523438 C 17.265625 57.484375 18.589844 57.105469 19.640625 57.691406 L 21.148438 58.535156 C 22.0625 59.042969 23.113281 59.039062 24.019531 58.503906 C 24.929688 57.964844 25.457031 57.050781 25.457031 55.984375 L 25.457031 24.902344 C 25.457031 23.707031 26.429688 22.734375 27.628906 22.734375 C 28.824219 22.734375 29.796875 23.707031 29.796875 24.902344 L 29.796875 55.984375 C 29.796875 58.589844 28.457031 60.929688 26.214844 62.246094 C 25.074219 62.914062 23.816406 63.253906 22.558594 63.253906 Z M 22.558594 63.253906 " fill-opacity="1" fill-rule="nonzero"/><g clip-path="url(#f74e3f6b4f)"><path fill="#1a1a1a" d="M 37.503906 72.355469 C 36.597656 72.355469 35.695312 72.121094 34.890625 71.648438 L 27.9375 67.578125 C 26.90625 66.96875 26.554688 65.640625 27.160156 64.609375 C 27.765625 63.574219 29.089844 63.230469 30.128906 63.832031 L 37.078125 67.902344 C 37.339844 68.058594 37.652344 68.0625 37.925781 67.902344 L 63.09375 53.164062 C 63.367188 53.003906 63.539062 52.703125 63.539062 52.367188 L 63.539062 22.902344 C 63.539062 22.570312 63.363281 22.265625 63.085938 22.101562 L 37.929688 7.375 C 37.664062 7.222656 37.347656 7.21875 37.089844 7.371094 L 11.898438 22.109375 C 11.628906 22.265625 11.460938 22.566406 11.460938 22.894531 L 11.460938 52.367188 C 11.460938 52.691406 11.632812 53.003906 11.898438 53.15625 L 19.675781 57.710938 C 20.710938 58.320312 21.058594 59.648438 20.457031 60.679688 C 19.847656 61.710938 18.519531 62.058594 17.488281 61.457031 L 9.710938 56.90625 C 8.113281 55.96875 7.121094 54.230469 7.121094 52.367188 L 7.121094 22.902344 C 7.113281 21.042969 8.105469 19.300781 9.703125 18.363281 L 34.886719 3.632812 C 36.5 2.6875 38.503906 2.683594 40.125 3.628906 L 65.285156 18.359375 C 66.890625 19.300781 67.878906 21.042969 67.878906 22.902344 L 67.878906 52.375 C 67.871094 54.234375 66.882812 55.964844 65.292969 56.90625 L 40.117188 71.648438 C 39.3125 72.121094 38.40625 72.355469 37.503906 72.355469 Z M 37.503906 72.355469 " fill-opacity="1" fill-rule="nonzero"/></g><path fill="#1a1a1a" d="M 44.554688 52.542969 C 38.050781 52.542969 31.097656 50.300781 31.097656 44.007812 C 31.097656 42.808594 32.070312 41.835938 33.269531 41.835938 C 34.46875 41.835938 35.4375 42.808594 35.4375 44.007812 C 35.4375 47.324219 41.167969 48.203125 44.554688 48.203125 C 50.601562 48.203125 53.667969 47.554688 53.667969 44.007812 C 53.667969 42.226562 51.492188 41.527344 46.148438 40.253906 L 44.03125 39.742188 C 43.382812 39.582031 42.695312 39.433594 41.992188 39.277344 C 37.394531 38.261719 31.097656 36.875 31.097656 31.269531 C 31.097656 24.972656 38.046875 22.730469 44.550781 22.730469 C 51.054688 22.730469 58.003906 24.972656 58.003906 31.269531 C 58.003906 32.464844 57.03125 33.4375 55.832031 33.4375 C 54.636719 33.4375 53.664062 32.464844 53.664062 31.269531 C 53.664062 27.953125 47.933594 27.070312 44.550781 27.070312 C 41.164062 27.070312 35.4375 27.957031 35.4375 31.269531 C 35.4375 33.230469 38.683594 34.101562 42.925781 35.039062 C 43.671875 35.203125 44.394531 35.363281 45.074219 35.53125 L 47.152344 36.03125 C 52.734375 37.359375 58.007812 38.617188 58.007812 44.007812 C 58.007812 52.542969 48.917969 52.542969 44.554688 52.542969 Z M 44.554688 52.542969 " fill-opacity="1" fill-rule="nonzero"/></svg>